
<svg xmlns="http://www.w3.org/2000/svg" fill="#ffffff" viewBox="0 0 24 24">
<path d="M20.52 3.48A11.87 11.87 0 0 0 3.48 20.52l-1.02 3.74a1 1 0 0 0 1.21 1.21l3.74-1.02A11.87 11.87 0 1 0 20.52 3.48ZM12 20.5a8.47 8.47 0 0 1-4.53-1.29.998.998 0 0 0-.73-.1l-2.67.73.73-2.67a1 1 0 0 0-.1-.73A8.47 8.47 0 1 1 12 20.5Zm4.13-6.32c-.22-.11-1.3-.64-1.5-.72-.2-.07-.35-.11-.5.11s-.57.72-.7.87c-.13.15-.26.17-.48.06a7.06 7.06 0 0 1-2.07-1.46 7.06 7.06 0 0 1-1.46-2.07c-.11-.22-.09-.35.06-.48.13-.15.3-.35.44-.57.15-.22.2-.37.3-.61.1-.24.03-.46-.03-.64s-.5-1.2-.69-1.64c-.18-.43-.37-.37-.5-.38l-.43-.01c-.15 0-.4.06-.61.28s-.8.78-.8 1.9.82 2.2.94 2.36c.11.15 1.6 2.42 3.89 3.38.54.23.96.37 1.29.47.54.17 1.03.15 1.42.09.43-.06 1.3-.53 1.49-1.04.2-.5.2-.93.14-1.02-.06-.09-.2-.13-.42-.24Z"/>
</svg>
