<svg xmlns="http://www.w3.org/2000/svg" width="20" height="20" fill="#000" viewBox="0 0 24 24"><path d="M20.52 3.48a11.87 11.87 0 0 0-16.72 0 11.86 11.86 0 0 0-2.78 12.45l-1.02 3.74a1 1 0 0 0 1.21 1.21l3.74-1.02a11.86 11.86 0 0 0 12.45-2.78 11.87 11.87 0 0 0 0-16.72ZM12 20.5a8.47 8.47 0 0 1-4.53-1.29.998.998 0 0 0-.73-.1l-2.67.73.73-2.67a1 1 0 0 0-.1-.73A8.47 8.47 0 1 1 12 20.5Zm4.13-6.32c-.22-.11-1.3-.64-1.5-.72-.2-.07-.35-.11-.5.11s-.57.72-.7.87c-.13.15-.26.17-.48.06a7.06 7.06 0 0 1-2.08-1.28 7.8 7.8 0 0 1-1.44-1.79c-.15-.26 0-.4.11-.52.11-.11.26-.3.39-.44.13-.15.17-.26.26-.44.09-.17.04-.33-.02-.44-.07-.11-.5-1.2-.68-1.65-.18-.44-.36-.38-.5-.38l-.43-.01c-.15 0-.39.06-.6.28s-.8.78-.8 1.91.82 2.22.94 2.37c.11.15 1.61 2.46 3.91 3.45.55.24.98.38 1.31.49.55.17 1.05.15 1.45.09.44-.07 1.3-.53 1.48-1.05.18-.52.18-.97.13-1.05-.04-.07-.2-.11-.42-.22Z"/></svg>